<?xml version="1.0" encoding="UTF-8" standalone="no"?>
<!-- Created with Inkscape (http://www.inkscape.org/) -->

<svg
   xmlns:dc="http://purl.org/dc/elements/1.1/"
   xmlns:cc="http://creativecommons.org/ns#"
   xmlns:rdf="http://www.w3.org/1999/02/22-rdf-syntax-ns#"
   xmlns:svg="http://www.w3.org/2000/svg"
   xmlns="http://www.w3.org/2000/svg"
   xmlns:sodipodi="http://sodipodi.sourceforge.net/DTD/sodipodi-0.dtd"
   xmlns:inkscape="http://www.inkscape.org/namespaces/inkscape"
   width="297mm"
   height="210mm"
   viewBox="0 0 297 210"
   version="1.1"
   id="svg1439"
   inkscape:version="0.92.2 (5c3e80d, 2017-08-06)"
   sodipodi:docname="cert1.svg">
  <defs
     id="defs1433" />
  <sodipodi:namedview
     id="base"
     pagecolor="#ffffff"
     bordercolor="#666666"
     borderopacity="1.0"
     inkscape:pageopacity="0.0"
     inkscape:pageshadow="2"
     inkscape:zoom="0.35"
     inkscape:cx="453.42857"
     inkscape:cy="470.28571"
     inkscape:document-units="mm"
     inkscape:current-layer="layer1"
     showgrid="false"
     inkscape:window-width="1366"
     inkscape:window-height="706"
     inkscape:window-x="-8"
     inkscape:window-y="-8"
     inkscape:window-maximized="1" />
  <metadata
     id="metadata1436">
    <rdf:RDF>
      <cc:Work
         rdf:about="">
        <dc:format>image/svg+xml</dc:format>
        <dc:type
           rdf:resource="http://purl.org/dc/dcmitype/StillImage" />
        <dc:title></dc:title>
      </cc:Work>
    </rdf:RDF>
  </metadata>
  <g
     inkscape:label="Layer 1"
     inkscape:groupmode="layer"
     id="layer1"
     transform="translate(0,-87)">
    <g
       id="g1991"
       style="fill:#ff0000">
      <path
         sodipodi:nodetypes="cccc"
         inkscape:connector-curvature="0"
         id="path1988"
         d="M 1.5119047,295.4881 C 1.5119047,88.357148 0.75595238,88.357148 0.75595238,88.357148 L 161.77381,87.601195 C 71.830678,136.02683 20.917888,206.75552 1.5119047,295.4881 Z"
         style="fill:#ff0000;stroke:#000000;stroke-width:0.26458332px;stroke-linecap:butt;stroke-linejoin:miter;stroke-opacity:1;fill-opacity:1" />
    </g>
    <g
       transform="translate(-0.0179033,-0.009068)"
       style="fill:#333333"
       id="g2001">
      <path
         sodipodi:nodetypes="cccc"
         inkscape:connector-curvature="0"
         id="path1999"
         d="M 1.6965128,295.47896 C 1.6965128,88.366216 0.77385568,88.366216 0.77385568,88.366216 L 197.13315,87.628538 C 204.88708,89.950073 33.502065,160.32235 1.6965128,295.47896 Z"
         style="fill:#333333;fill-opacity:1;stroke:#000000;stroke-width:0.29229161px;stroke-linecap:butt;stroke-linejoin:miter;stroke-opacity:1" />
      <path
         style="fill:#333333;fill-opacity:1;stroke:#000000;stroke-width:0.29229161px;stroke-linecap:butt;stroke-linejoin:miter;stroke-opacity:1"
         d="M 1.6965128,295.47896 C 1.6965128,88.366216 0.77385568,88.366216 0.77385568,88.366216 L 197.13315,87.628538 C 204.88708,89.950073 33.502065,160.32235 1.6965128,295.47896 Z"
         id="path2003"
         inkscape:connector-curvature="0"
         sodipodi:nodetypes="cccc" />
      <path
         sodipodi:nodetypes="cccc"
         inkscape:connector-curvature="0"
         id="path2005"
         d="M 1.6965128,295.47896 C 1.6965128,88.366216 0.77385568,88.366216 0.77385568,88.366216 L 197.13315,87.628538 C 183.35023,83.796686 29.263659,159.11138 1.6965128,295.47896 Z"
         style="fill:#333333;fill-opacity:1;stroke:#000000;stroke-width:0.29229161px;stroke-linecap:butt;stroke-linejoin:miter;stroke-opacity:1" />
    </g>
    <g
       transform="translate(-0.1846081,0.00914)"
       style="fill:#ff0000"
       id="g2009">
      <path
         sodipodi:nodetypes="cccc"
         inkscape:connector-curvature="0"
         id="path2007"
         d="M 1.6965128,295.47896 C 1.6965128,88.366216 0.77385568,88.366216 0.77385568,88.366216 L 197.29985,87.61033 C 87.52219,136.03171 25.381961,206.75418 1.6965128,295.47896 Z"
         style="fill:#ff0000;fill-opacity:1;stroke:#000000;stroke-width:0.29229161px;stroke-linecap:butt;stroke-linejoin:miter;stroke-opacity:1" />
      <path
         style="fill:#666666;fill-opacity:1;stroke:#000000;stroke-width:0.30439618px;stroke-linecap:butt;stroke-linejoin:miter;stroke-opacity:1"
         d="M 1.9488794,295.4568 C 1.9488794,88.351925 0.9481826,88.351925 0.9481826,88.351925 L 197.29985,87.61033 C 65.296481,82.165795 27.637678,206.73539 1.9488794,295.4568 Z"
         id="path2011"
         inkscape:connector-curvature="0"
         sodipodi:nodetypes="cccc" />
    </g>
    <g
       transform="translate(-0.1846081,0.00914)"
       style="fill:#ffff00"
       id="g2015">
      <path
         sodipodi:nodetypes="cccc"
         inkscape:connector-curvature="0"
         id="path2013"
         d="M 1.6965128,295.47896 C 1.6965128,88.366216 0.77385568,88.366216 0.77385568,88.366216 L 197.29985,87.61033 C 143.39774,104.82921 4.6652453,206.60023 1.6965128,295.47896 Z"
         style="fill:#ffff00;fill-opacity:1;stroke:#000000;stroke-width:0.29229161px;stroke-linecap:butt;stroke-linejoin:miter;stroke-opacity:1" />
    </g>
    <g
       id="g1995"
       style="fill:#ff0000"
       transform="translate(-0.1846081,0.00914)">
      <path
         style="fill:#ff0000;fill-opacity:1;stroke:#000000;stroke-width:0.29229161px;stroke-linecap:butt;stroke-linejoin:miter;stroke-opacity:1"
         d="M 1.6965128,295.47896 C 1.6965128,88.366216 0.77385568,88.366216 0.77385568,88.366216 L 197.29985,87.61033 C 87.52219,115.23483 25.381961,201.27392 1.6965128,295.47896 Z"
         id="path1993"
         inkscape:connector-curvature="0"
         sodipodi:nodetypes="cccc" />
    </g>
    <path
       style="fill:#ff0000;stroke:#000000;stroke-width:0.26458332px;stroke-linecap:butt;stroke-linejoin:miter;stroke-opacity:1"
       d="M 300.11309,297.75595 V 172.26786 c -21.04962,48.00261 -26.83106,106.41533 -89.20238,126.24405 z"
       id="path2017"
       inkscape:connector-curvature="0"
       sodipodi:nodetypes="cccc" />
    <path
       style="fill:#4d4d4d;stroke:#000000;stroke-width:0.26458332px;stroke-linecap:butt;stroke-linejoin:miter;stroke-opacity:1"
       d="M 300.11309,297.75595 V 172.26786 c -24.0449,43.88411 -38.79652,89.96282 -89.20238,126.24405 z"
       id="path2021"
       inkscape:connector-curvature="0"
       sodipodi:nodetypes="cccc" />
    <path
       style="fill:#000000;stroke:#000000;stroke-width:0.26458332px;stroke-linecap:butt;stroke-linejoin:miter;stroke-opacity:1"
       d="M 300.11309,297.75595 V 172.26786 c -38.37606,90.44751 -31.92935,85.96809 -89.20238,126.24405 z"
       id="path2023"
       inkscape:connector-curvature="0"
       sodipodi:nodetypes="cccc" />
    <path
       sodipodi:nodetypes="cccc"
       inkscape:connector-curvature="0"
       id="path2019"
       d="M 300.11309,297.75595 V 172.26786 c -12.24165,40.95624 -15.54504,97.38651 -89.20238,126.24405 z"
       style="fill:#ff0000;stroke:#000000;stroke-width:0.26458332px;stroke-linecap:butt;stroke-linejoin:miter;stroke-opacity:1" />
    <ellipse
       style="fill:#ffffff;fill-opacity:1;stroke:none;stroke-width:7.50979328;stroke-miterlimit:4;stroke-dasharray:none;stroke-opacity:1"
       id="path2029"
       cx="41.199417"
       cy="118.97318"
       rx="35.907742"
       ry="26.836309" />
    <g
       transform="translate(-0.1846081,0.00914)"
       style="fill:#ff0000"
       id="g2039">
      <path
         sodipodi:nodetypes="cccc"
         inkscape:connector-curvature="0"
         id="path2037"
         d="M 1.6965128,295.47896 C 1.6965128,88.366216 0.77385568,88.366216 0.77385568,88.366216 L 197.29985,87.61033 C 87.52219,115.23483 25.381961,201.27392 1.6965128,295.47896 Z"
         style="fill:#ff0000;fill-opacity:1;stroke:#000000;stroke-width:0.29229161px;stroke-linecap:butt;stroke-linejoin:miter;stroke-opacity:1" />
    </g>
    <path
       style="font-style:normal;font-variant:normal;font-weight:normal;font-stretch:normal;font-size:15.17158699px;line-height:1.25;font-family:'Tempus Sans ITC';-inkscape-font-specification:'Tempus Sans ITC';letter-spacing:0px;word-spacing:0px;fill:#ffffff;fill-opacity:1;stroke:none;stroke-width:0.81276351"
       d="m 47.558989,108.69129 c -1.5275,0 -2.78746,0.23306 -3.78065,0.69868 -0.99319,0.46173 -1.48983,1.05519 -1.48983,1.78076 0,0.63247 0.29838,1.14677 0.89555,1.54255 0.60346,0.39189 1.52781,0.66954 2.77244,0.83251 0.61603,0.0776 1.1972,0.14128 1.74408,0.19172 0.55317,0.0504 1.06541,0.11463 1.53686,0.19223 0.62231,0.10088 1.08423,0.24241 1.38596,0.42478 0.30802,0.18236 0.46251,0.46543 0.46251,0.84956 0,0.44621 -0.32406,0.80352 -0.97152,1.07126 -0.64118,0.26771 -1.53985,0.40152 -2.69648,0.40152 -0.81718,0 -1.69121,-0.0992 -2.62154,-0.29715 -0.93033,-0.19788 -1.75051,-0.47915 -2.46083,-0.84387 h -0.13178 v 1.44384 c 0.83604,0.22892 1.65622,0.40139 2.46083,0.51779 0.8109,0.11641 1.72215,0.17468 2.7342,0.17468 0.9429,0 1.74749,-0.0701 2.41381,-0.20981 0.6726,-0.13968 1.26032,-0.33355 1.7632,-0.58189 0.45888,-0.22892 0.81413,-0.50837 1.06557,-0.83818 0.25772,-0.32982 0.38654,-0.6634 0.38654,-1.00097 0,-0.62082 -0.26366,-1.10367 -0.79169,-1.44901 -0.52802,-0.34532 -1.314,-0.60338 -2.35748,-0.77411 -0.51545,-0.0815 -1.14392,-0.16114 -1.88567,-0.23874 -0.74175,-0.0776 -1.31387,-0.1436 -1.71617,-0.19793 -0.76061,-0.10864 -1.29198,-0.26563 -1.5937,-0.47128 -0.30173,-0.20566 -0.45217,-0.48923 -0.45217,-0.85009 0,-0.40352 0.3014,-0.733 0.90485,-0.98908 0.60974,-0.2561 1.41433,-0.38448 2.41381,-0.38448 0.91147,0 1.8011,0.0933 2.66857,0.27958 0.87375,0.18236 1.5777,0.41309 2.11202,0.69246 h 0.13229 v -1.36167 c -0.63489,-0.17073 -1.36452,-0.31458 -2.18798,-0.43098 -0.82347,-0.11641 -1.7287,-0.17468 -2.7156,-0.17468 z m 35.09501,0 c -2.2881,0 -4.08899,0.40191 -5.40277,1.2051 -1.30749,0.79931 -1.96112,1.8916 -1.96112,3.2768 0,0.75662 0.17612,1.41789 0.52814,1.98437 0.35201,0.56262 0.85167,1.03233 1.49913,1.40871 0.64117,0.37248 1.41707,0.65195 2.32854,0.83819 0.91147,0.18624 1.91432,0.27905 3.00808,0.27905 0.84862,0 1.72567,-0.0791 2.63085,-0.23823 0.91147,-0.16297 1.75078,-0.35321 2.51768,-0.57051 v -3.71914 h -5.61051 v 1.01285 h 3.76204 v 2.12442 c -0.45259,0.1164 -0.98042,0.21101 -1.58388,0.28474 -0.59717,0.0737 -1.19747,0.11059 -1.80092,0.11059 -1.64694,0 -2.94817,-0.3104 -3.90364,-0.93122 -0.95548,-0.6247 -1.43351,-1.4976 -1.43351,-2.61896 0,-1.06314 0.45589,-1.90513 1.36736,-2.52594 0.91776,-0.62469 2.16264,-0.9369 3.73414,-0.9369 0.69775,0 1.31967,0.0405 1.86655,0.12196 0.55317,0.0776 1.0468,0.17685 1.48053,0.29715 0.35831,0.10087 0.72312,0.22693 1.09399,0.37826 0.37088,0.15132 0.65366,0.27326 0.84853,0.36638 h 0.1695 v -1.36734 c -0.96176,-0.28326 -1.86044,-0.48305 -2.69648,-0.59945 -0.82975,-0.12028 -1.6439,-0.18088 -2.44223,-0.18088 z m -77.1291289,0.1571 v 8.66666 h 1.8665601 v -3.23029 H 9.2585 c 1.00576,0 1.83852,-0.0737 2.49855,-0.22118 0.66003,-0.15132 1.23215,-0.37664 1.71618,-0.67541 0.38973,-0.24056 0.69164,-0.52363 0.90537,-0.84956 0.22001,-0.32981 0.32969,-0.6866 0.32969,-1.07073 0,-0.50442 -0.14742,-0.92181 -0.44287,-1.25161 -0.28915,-0.32981 -0.70075,-0.60514 -1.23506,-0.8263 -0.45259,-0.18625 -0.97138,-0.32186 -1.55598,-0.40721 -0.5846,-0.0892 -1.29811,-0.13437 -2.14044,-0.13437 z m 11.6540589,0 v 8.66666 h 1.86707 v -3.44579 h 2.63033 l 4.69584,3.44579 h 2.42311 l -5.2803,-3.78891 c 0.89261,-0.21341 1.59355,-0.52974 2.10271,-0.94878 0.50917,-0.42293 0.76378,-0.9468 0.76378,-1.57148 0,-0.46175 -0.14441,-0.84225 -0.43356,-1.14102 -0.28287,-0.30265 -0.67888,-0.55245 -1.18805,-0.75034 -0.45259,-0.17461 -0.96181,-0.29525 -1.52755,-0.36122 -0.56574,-0.0698 -1.27271,-0.10491 -2.12132,-0.10491 z m 13.42709,0 v 8.66666 h 9.24956 v -1.02475 h -7.38301 v -3.21841 h 7.38301 v -1.02423 h -7.38301 v -2.37452 h 7.38301 v -1.02475 z m 23.53448,0 v 1.02475 h 5.01623 v 7.64191 h 1.86707 v -7.64191 h 5.01623 v -1.02475 z m 13.21005,0 v 0.88471 h 1.83864 v 6.89724 h -1.83864 v 0.88471 h 5.54436 v -0.88471 h -1.83865 v -6.89724 h 1.83865 v -0.88471 z m -59.9591188,0.9896 H 9.23989 c 0.59089,0 1.07796,0.0273 1.46141,0.0817 0.38973,0.0504 0.73542,0.13551 1.03715,0.25579 0.34573,0.13968 0.60335,0.3204 0.77308,0.54157 0.16972,0.22117 0.25476,0.48103 0.25476,0.7798 0,0.25608 -0.0629,0.48681 -0.18862,0.69246 -0.11943,0.20565 -0.32674,0.40183 -0.62218,0.58808 -0.29544,0.18236 -0.67887,0.31616 -1.15032,0.40152 -0.47145,0.0815 -1.08484,0.12196 -1.83916,0.12196 H 7.3914302 Z m 11.6545688,0 h 2.19677 c 0.50288,0 0.93964,0.0232 1.31051,0.0698 0.37088,0.0427 0.6914,0.12054 0.9617,0.23307 0.32687,0.13192 0.55986,0.29485 0.69815,0.48885 0.14458,0.19014 0.21652,0.40952 0.21652,0.65784 0,0.32593 -0.0689,0.59534 -0.20722,0.80874 -0.13201,0.20952 -0.33931,0.39566 -0.62218,0.55862 -0.30802,0.17462 -0.6824,0.29526 -1.12242,0.36122 -0.44002,0.0621 -0.95527,0.093 -1.54616,0.093 h -1.88567 z m 17.68884,14.18984 c -0.96804,0 -1.8637,0.10054 -2.68717,0.30231 -0.81718,0.20177 -1.50252,0.49308 -2.05569,0.87333 -0.57831,0.39965 -1.0186,0.88071 -1.32033,1.44332 -0.30173,0.55873 -0.45217,1.19086 -0.45217,1.89704 0,0.71782 0.15044,1.35639 0.45217,1.91513 0.30801,0.55873 0.74529,1.03025 1.31103,1.41438 0.56574,0.38413 1.25056,0.67673 2.05517,0.8785 0.8109,0.20178 1.71009,0.30282 2.69699,0.30282 1.01205,0 1.91073,-0.0987 2.69648,-0.29662 0.79204,-0.19788 1.47737,-0.4928 2.05569,-0.8847 0.55945,-0.37637 0.9932,-0.84608 1.30121,-1.4087 0.3143,-0.5665 0.47129,-1.20687 0.47129,-1.92081 0,-0.71394 -0.15397,-1.352 -0.46199,-1.91461 -0.30173,-0.56262 -0.73848,-1.03774 -1.31051,-1.42575 -0.55946,-0.37637 -1.24178,-0.66589 -2.04639,-0.86765 -0.79832,-0.20565 -1.70001,-0.30799 -2.70578,-0.30799 z m -19.51818,0.18036 v 1.02421 h 5.01623 v 7.64192 h 1.86707 v -7.64191 h 5.01623 v -1.02422 z m 28.79617,0 v 5.18573 c 0,0.65573 0.1102,1.20872 0.33021,1.6588 0.2263,0.45009 0.59361,0.83422 1.10278,1.15238 0.44631,0.27937 0.9968,0.49051 1.65054,0.63407 0.65375,0.14358 1.4206,0.21549 2.30064,0.21549 0.86118,0 1.61545,-0.0678 2.26291,-0.2036 0.64746,-0.13579 1.21303,-0.35106 1.69705,-0.64596 0.50917,-0.31039 0.87398,-0.69864 1.09399,-1.16426 0.2263,-0.4695 0.33952,-1.01834 0.33952,-1.64692 v -5.18573 h -1.86707 v 5.27305 c 0,0.42293 -0.0533,0.77792 -0.1602,1.06506 -0.10057,0.28325 -0.27368,0.53538 -0.51883,0.75654 -0.28287,0.25609 -0.65975,0.44815 -1.1312,0.57619 -0.47145,0.12416 -1.04357,0.18603 -1.71617,0.18603 -0.66632,0 -1.23844,-0.0637 -1.71618,-0.19172 -0.47145,-0.12804 -0.84531,-0.3183 -1.12189,-0.57051 -0.24516,-0.22116 -0.42127,-0.46736 -0.52813,-0.73897 -0.10058,-0.27161 -0.1509,-0.64258 -0.1509,-1.11208 v -5.2436 z m 14.35106,0 v 8.66613 h 1.86707 v -3.44579 h 2.63033 l 4.69584,3.44579 h 2.42311 l -5.2803,-3.78891 c 0.89261,-0.21341 1.59355,-0.52973 2.10271,-0.94878 0.50917,-0.42293 0.76378,-0.94677 0.76378,-1.57148 0,-0.46174 -0.14441,-0.84171 -0.43356,-1.14049 -0.28287,-0.30266 -0.67888,-0.55299 -1.18805,-0.75087 -0.45259,-0.1746 -0.96181,-0.29526 -1.52755,-0.36122 -0.56574,-0.0698 -1.27271,-0.10438 -2.12132,-0.10438 z m -23.61975,0.81442 c 1.41436,0 2.52991,0.30678 3.34709,0.91983 0.81718,0.60918 1.22576,1.47617 1.22576,2.60139 0,1.13687 -0.41461,2.00798 -1.24437,2.61328 -0.82346,0.60141 -1.93298,0.90227 -3.32848,0.90227 -1.39549,0 -2.50802,-0.30086 -3.33777,-0.90227 -0.82976,-0.6053 -1.24489,-1.4764 -1.24489,-2.61328 0,-1.12522 0.40557,-1.99221 1.21646,-2.60139 0.81719,-0.61306 1.93928,-0.91983 3.3662,-0.91983 z m 25.48682,0.17466 h 2.19677 c 0.50288,0 0.93964,0.0237 1.31051,0.0703 0.37088,0.0427 0.6914,0.12002 0.9617,0.23255 0.32687,0.13191 0.55986,0.29485 0.69815,0.48885 0.14458,0.19013 0.21652,0.40952 0.21652,0.65785 0,0.32593 -0.0689,0.59533 -0.20722,0.80873 -0.13201,0.20953 -0.33931,0.39618 -0.62218,0.55915 -0.30802,0.17461 -0.6824,0.29472 -1.12242,0.3607 -0.44002,0.0621 -0.95527,0.093 -1.54616,0.093 h -1.88567 z"
       id="text2047"
       inkscape:connector-curvature="0" />
    <ellipse
       ry="30.23035"
       rx="30.60833"
       cy="127.66669"
       cx="43.467262"
       id="ellipse2043"
       style="fill:none;fill-opacity:1;stroke:#eae4e4;stroke-width:4.4903903;stroke-miterlimit:4;stroke-dasharray:none;stroke-opacity:1" />
    <rect
       style="fill:none;fill-opacity:1;stroke:none;stroke-width:2.96299982;stroke-miterlimit:4;stroke-dasharray:none;stroke-opacity:1"
       id="rect2063"
       width="83.910713"
       height="30.994047"
       x="3.7797618"
       y="109.52381"
       ry="1.0105892" />
    <rect
       style="fill:none;fill-opacity:1;stroke:none;stroke-width:2.96299982;stroke-miterlimit:4;stroke-dasharray:none;stroke-opacity:1"
       id="rect2066"
       width="56.7061"
       height="19.619989"
       x="3.7797618"
       y="109.52381"
       ry="1.0105892" />
    <rect
       style="fill:none;fill-opacity:1;stroke:none;stroke-width:2.96299982;stroke-miterlimit:4;stroke-dasharray:none;stroke-opacity:1"
       id="rect2068"
       width="61.825691"
       height="8.6666479"
       x="3.7797618"
       y="109.52381"
       ry="1.0105892" />
    <rect
       style="fill:none;fill-opacity:1;stroke:none;stroke-width:2.96299982;stroke-miterlimit:4;stroke-dasharray:none;stroke-opacity:1"
       id="rect2070"
       width="29.352718"
       height="15.184609"
       x="5.6463218"
       y="110.51341"
       ry="1.0105892" />
    <rect
       style="fill:none;fill-opacity:1;stroke:none;stroke-width:2.96299982;stroke-miterlimit:4;stroke-dasharray:none;stroke-opacity:1"
       id="rect2072"
       width="53.631866"
       height="8.6666508"
       x="3.7797618"
       y="109.52381"
       ry="1.0105892" />
    <rect
       style="fill:none;fill-opacity:1;stroke:none;stroke-width:2.96299982;stroke-miterlimit:4;stroke-dasharray:none;stroke-opacity:1"
       id="rect2074"
       width="0"
       height="16.581423"
       x="70.235138"
       y="116.96831"
       ry="1.0105892" />
    <rect
       style="fill:none;fill-opacity:1;stroke:none;stroke-width:2.96299982;stroke-miterlimit:4;stroke-dasharray:none;stroke-opacity:1"
       id="rect2078"
       width="70.726952"
       height="23.99078"
       x="3.7797618"
       y="109.52381"
       ry="1.0105892" />
    <rect
       style="fill:none;fill-opacity:1;stroke:none;stroke-width:2.96299982;stroke-miterlimit:4;stroke-dasharray:none;stroke-opacity:1"
       id="rect2080"
       width="77.772568"
       height="30.039598"
       x="9.917901"
       y="110.47826"
       ry="1.0105892" />
    <rect
       style="fill:none;fill-opacity:1;stroke:none;stroke-width:2.96299982;stroke-miterlimit:4;stroke-dasharray:none;stroke-opacity:1"
       id="rect2082"
       width="77.772568"
       height="30.039598"
       x="9.917901"
       y="110.47826"
       ry="1.0105892" />
    <rect
       style="fill:none;fill-opacity:1;stroke:none;stroke-width:2.96299982;stroke-miterlimit:4;stroke-dasharray:none;stroke-opacity:1"
       id="rect2084"
       width="82.277657"
       height="8.0263796"
       x="8.0513411"
       y="109.48866"
       ry="1.0105892" />
    <rect
       style="fill:none;fill-opacity:1;stroke:none;stroke-width:2.96299982;stroke-miterlimit:4;stroke-dasharray:none;stroke-opacity:1"
       id="rect2086"
       width="79.63913"
       height="31.029196"
       x="8.0513411"
       y="109.48866"
       ry="1.0105892" />
    <rect
       style="fill:none;fill-opacity:1;stroke:none;stroke-width:2.96299982;stroke-miterlimit:4;stroke-dasharray:none;stroke-opacity:1"
       id="rect2088"
       width="79.63913"
       height="23.002813"
       x="8.0513411"
       y="117.51505"
       ry="1.0105892" />
    <rect
       style="fill:none;fill-opacity:1;stroke:none;stroke-width:2.96299982;stroke-miterlimit:4;stroke-dasharray:none;stroke-opacity:1"
       id="rect2090"
       width="52.972458"
       height="10.90732"
       x="8.0513411"
       y="117.51505"
       ry="1.0105892" />
    <rect
       style="fill:none;fill-opacity:1;stroke:none;stroke-width:2.96299982;stroke-miterlimit:4;stroke-dasharray:none;stroke-opacity:1"
       id="rect2119"
       width="81.505692"
       height="27.455299"
       x="6.1847811"
       y="113.06256"
       ry="1.0105892" />
    <rect
       style="fill:none;fill-opacity:1;stroke:none;stroke-width:2.96299982;stroke-miterlimit:4;stroke-dasharray:none;stroke-opacity:1"
       id="rect2121"
       width="82.165604"
       height="31.66947"
       x="5.5248699"
       y="108.84839"
       ry="1.0105892" />
    <rect
       style="fill:none;fill-opacity:1;stroke:none;stroke-width:2.96299982;stroke-miterlimit:4;stroke-dasharray:none;stroke-opacity:1"
       id="rect2123"
       width="83.910706"
       height="30.994041"
       x="3.7797618"
       y="109.52381"
       ry="1.0105892" />
    <rect
       style="fill:#ff0000;fill-opacity:1;stroke:none;stroke-width:2.96299982;stroke-miterlimit:4;stroke-dasharray:none;stroke-opacity:1"
       id="rect2125"
       width="139.8512"
       height="118.68452"
       x="-182.94048"
       y="98.184525"
       ry="1.0105892" />
    <ellipse
       style="fill:none;fill-opacity:1;stroke:#eae4e4;stroke-width:4.4903903;stroke-miterlimit:4;stroke-dasharray:none;stroke-opacity:1"
       id="ellipse2127"
       cx="-113.01488"
       cy="160.9286"
       rx="30.60833"
       ry="30.23035" />
    <rect
       style="fill:#f9f9f9;fill-opacity:1;stroke:none;stroke-width:2.96299982;stroke-miterlimit:4;stroke-dasharray:none;stroke-opacity:1"
       id="rect2135"
       width="0.20797142"
       height="27.294815"
       x="-136.2794"
       y="121.61905"
       ry="0.10398571" />
    <rect
       style="fill:#f9f9f9;fill-opacity:1;stroke:none;stroke-width:3.42692709;stroke-miterlimit:4;stroke-dasharray:none;stroke-opacity:1"
       id="rect2137"
       width="77.863091"
       height="34.017857"
       x="-151.94644"
       y="144.29762"
       ry="0.10398574" />
  </g>
</svg>
