<?xml version="1.0" encoding="UTF-8" standalone="no"?>
<!-- Created with Inkscape (http://www.inkscape.org/) -->

<svg
   xmlns:dc="http://purl.org/dc/elements/1.1/"
   xmlns:cc="http://creativecommons.org/ns#"
   xmlns:rdf="http://www.w3.org/1999/02/22-rdf-syntax-ns#"
   xmlns:svg="http://www.w3.org/2000/svg"
   xmlns="http://www.w3.org/2000/svg"
   xmlns:sodipodi="http://sodipodi.sourceforge.net/DTD/sodipodi-0.dtd"
   xmlns:inkscape="http://www.inkscape.org/namespaces/inkscape"
   width="3.5in"
   height="2in"
   viewBox="0 0 88.9 50.799998"
   version="1.1"
   id="svg8"
   sodipodi:docname="drawing-BUSINESS CARD.svg"
   inkscape:version="0.92.2 (5c3e80d, 2017-08-06)">
  <defs
     id="defs2" />
  <sodipodi:namedview
     id="base"
     pagecolor="#ffffff"
     bordercolor="#666666"
     borderopacity="1.0"
     inkscape:pageopacity="0.0"
     inkscape:pageshadow="2"
     inkscape:zoom="1"
     inkscape:cx="195.01429"
     inkscape:cy="78.2"
     inkscape:document-units="in"
     inkscape:current-layer="layer1"
     showgrid="false"
     units="in"
     borderlayer="true"
     inkscape:showpageshadow="false"
     inkscape:snap-page="true"
     inkscape:snap-to-guides="true"
     inkscape:snap-grids="true"
     inkscape:snap-others="false"
     inkscape:object-nodes="false"
     inkscape:snap-nodes="true"
     showguides="true"
     inkscape:guide-bbox="true"
     inkscape:window-width="1366"
     inkscape:window-height="706"
     inkscape:window-x="-8"
     inkscape:window-y="-8"
     inkscape:window-maximized="1">
    <sodipodi:guide
       position="33.072917,46.831248"
       orientation="0,1"
       id="guide827"
       inkscape:locked="false" />
    <sodipodi:guide
       position="17.991667,2.9104166"
       orientation="0,1"
       id="guide829"
       inkscape:locked="false" />
    <sodipodi:guide
       position="4.2333333,2.9104165"
       orientation="1,0"
       id="guide831"
       inkscape:locked="false" />
    <sodipodi:guide
       position="85.724998,33.072916"
       orientation="1,0"
       id="guide833"
       inkscape:locked="false" />
  </sodipodi:namedview>
  <metadata
     id="metadata5">
    <rdf:RDF>
      <cc:Work
         rdf:about="">
        <dc:format>image/svg+xml</dc:format>
        <dc:type
           rdf:resource="http://purl.org/dc/dcmitype/StillImage" />
        <dc:title></dc:title>
      </cc:Work>
    </rdf:RDF>
  </metadata>
  <g
     inkscape:label="Layer 1"
     inkscape:groupmode="layer"
     id="layer1"
     transform="translate(0,-246.20002)">
    <rect
       style="opacity:0.83800001;fill:#4d4d4d;fill-opacity:1;stroke:none;stroke-width:3.27875686;stroke-miterlimit:4;stroke-dasharray:none;stroke-opacity:1"
       id="rect823"
       width="95.25"
       height="57.149998"
       x="-3.1750009"
       y="243.02502"
       ry="0.33667094" />
    <path
       style="opacity:0.83800001;fill:#1a1a1a;fill-opacity:1;stroke:none;stroke-width:11.19874001;stroke-miterlimit:4;stroke-dasharray:none;stroke-opacity:1"
       d="M -9.7285156 -11 C -10.433458 -11 -11 -10.433458 -11 -9.7285156 L -11 198.72656 C -11 199.43151 -10.433458 200 -9.7285156 200 L 203.22852 200 A 131 142 0 0 1 177 115 A 131 142 0 0 1 247.69336 -11 L -9.7285156 -11 z "
       id="rect835"
       transform="matrix(0.26458333,0,0,0.26458333,0,246.20002)" />
    <path
       style="opacity:0.83800001;fill:#ff00ff;fill-opacity:1;stroke:none;stroke-width:4.03898954;stroke-miterlimit:4;stroke-dasharray:none;stroke-opacity:1"
       d="m 81.491666,232.70627 a 34.660416,37.570833 0 0 0 -34.660417,37.57083 34.660416,37.570833 0 0 0 2.630848,14.2813 34.660416,37.570833 0 0 1 -1.043348,-8.98963 34.660416,37.570833 0 0 1 34.660417,-37.57083 34.660416,37.570833 0 0 1 32.029564,23.28953 34.660416,37.570833 0 0 0 -33.617064,-28.5812 z m 33.367474,22.75417 a 34.660416,37.570833 0 0 1 1.04334,8.98963 34.660416,37.570833 0 0 1 -34.660412,37.57083 34.660416,37.570833 0 0 1 -32.029569,-23.28953 34.660416,37.570833 0 0 0 33.617069,28.5812 34.660416,37.570833 0 0 0 34.660412,-37.57083 34.660416,37.570833 0 0 0 -2.63084,-14.2813 z"
       id="path867"
       inkscape:connector-curvature="0" />
    <path
       style="opacity:0.83800001;fill:#4d4d4d;fill-opacity:1;stroke:none;stroke-width:12.39215183;stroke-miterlimit:4;stroke-dasharray:none;stroke-opacity:1"
       d="M -10.728516 -12 C -11.433457 -12 -12 -11.431504 -12 -10.726562 L -12 202.72852 C -12 203.43346 -11.433457 204 -10.728516 204 L 346.72852 204 C 347.43346 204 348 203.43346 348 202.72852 L 348 -10.726562 C 348 -11.431504 347.43346 -12 346.72852 -12 L -10.728516 -12 z "
       transform="matrix(0.26458333,0,0,0.26458333,0,246.20002)"
       id="rect902" />
  </g>
  <g
     inkscape:groupmode="layer"
     id="layer2"
     inkscape:label="DRAW" />
</svg>
