<?xml version="1.0" encoding="UTF-8" standalone="no"?>
<!-- Created with Inkscape (http://www.inkscape.org/) -->

<svg
   xmlns:dc="http://purl.org/dc/elements/1.1/"
   xmlns:cc="http://creativecommons.org/ns#"
   xmlns:rdf="http://www.w3.org/1999/02/22-rdf-syntax-ns#"
   xmlns:svg="http://www.w3.org/2000/svg"
   xmlns="http://www.w3.org/2000/svg"
   xmlns:sodipodi="http://sodipodi.sourceforge.net/DTD/sodipodi-0.dtd"
   xmlns:inkscape="http://www.inkscape.org/namespaces/inkscape"
   width="3.5in"
   height="2in"
   viewBox="0 0 88.9 50.8"
   version="1.1"
   id="svg8"
   inkscape:version="0.92.2 (5c3e80d, 2017-08-06)"
   sodipodi:docname="incomplete busi.svg">
  <defs
     id="defs2" />
  <sodipodi:namedview
     id="base"
     pagecolor="#ffffff"
     bordercolor="#666666"
     borderopacity="1.0"
     inkscape:pageopacity="0.0"
     inkscape:pageshadow="2"
     inkscape:zoom="1"
     inkscape:cx="116.91429"
     inkscape:cy="34.828571"
     inkscape:document-units="mm"
     inkscape:current-layer="layer1"
     showgrid="false"
     units="in"
     borderlayer="true"
     inkscape:showpageshadow="false"
     inkscape:window-width="1366"
     inkscape:window-height="706"
     inkscape:window-x="-8"
     inkscape:window-y="-8"
     inkscape:window-maximized="1" />
  <metadata
     id="metadata5">
    <rdf:RDF>
      <cc:Work
         rdf:about="">
        <dc:format>image/svg+xml</dc:format>
        <dc:type
           rdf:resource="http://purl.org/dc/dcmitype/StillImage" />
        <dc:title></dc:title>
      </cc:Work>
    </rdf:RDF>
  </metadata>
  <g
     inkscape:label="Layer 1"
     inkscape:groupmode="layer"
     id="layer1"
     transform="translate(0,-246.2)">
    <path
       id="path815"
       transform="matrix(0.26458333,0,0,0.26458333,0,246.2)"
       style="fill:#000000;stroke:#000000;stroke-width:0.99999994px;stroke-linecap:butt;stroke-linejoin:miter;stroke-opacity:1"
       d="m 217.62109,-1.015625 c 0.008,0.011208 0.0231,0.0220409 0.0312,0.0332031 L 219,-1 c -0.46111,-0.028298 -0.92005,-0.026173 -1.37891,-0.015625 z m -12.27539,0.20117188 c -0.7872,0.003484 -1.56629,0.15961366 -2.34961,0.23828124 -0.3738,-0.0888131 -0.76291,-0.14289061 -1.15625,-0.18945312 L 0,2 v 191 l 193,2 C 163.39815,153.48849 159.34402,90.065598 165.1875,89.373047 c 1.52963,-19.900164 20.78375,-76.898423 44.53125,-88.357422 -0.2784,-0.0435741 -0.36597,-0.0544872 -0.76172,-0.11132812 -1.81452,-0.71348579 -2.43373,-0.96897728 -2.95508,-1.1875 -0.12121,-0.0410409 -0.13738,-0.0448925 -0.29101,-0.0976563 -0.12406,-0.0424558 -0.2599,-0.0835161 -0.35938,-0.16601562 -0.24325,-0.10729362 -0.21039,-0.10615316 -0.0488,-0.0546875 -0.018,-0.0699336 0.12662,-0.21324193 0.0527,-0.21289062 -0.003,9.16e-6 -0.007,-1.438e-5 -0.01,0 z M 165.1875,89.373047 C 164.72559,95.382339 165.86167,98.045386 169,95 c -1.51117,-4.024209 -2.80743,-5.746071 -3.8125,-5.626953 z" />
    <path
       id="path827"
       transform="matrix(0.26458333,0,0,0.26458333,0,246.2)"
       style="opacity:0.83800001;fill:#ff00ff;fill-opacity:1;stroke:none;stroke-width:146.45294189;stroke-miterlimit:4;stroke-dasharray:none;stroke-opacity:1"
       d="m 319.86914,-38.509766 c -0.13265,0.408886 -0.27285,0.837216 -0.39453,1.210938 0.052,0.02864 0.10446,0.05865 0.15625,0.08984 2.84659,0.194103 4.67713,1.429025 6.80469,3.185546 0.7213,0.135893 1.47463,0.335854 2.10742,0.548829 0.21339,0.07181 0.41144,0.181973 0.61719,0.273437 0.0522,0.0098 0.85497,0.118705 1.75195,0.296875 -3.59756,-2.096522 -7.28352,-3.967533 -11.04297,-5.605469 z m -85.58203,3.431641 c -0.11532,-0.06662 -1.02615,0.88715 -1.01758,1.121094 0.34016,-0.327294 0.66969,-0.665801 1.00195,-1.001953 0.003,-0.0082 0.009,-0.01525 0.0117,-0.02344 0.021,-0.05631 0.0204,-0.08619 0.004,-0.0957 z m 60.54883,1.294922 c 0.0702,0.053 0.34294,0.141248 0.62109,0.230469 -0.0552,-0.0342 -0.0878,-0.05365 -0.14648,-0.08984 -0.10657,-0.04343 -0.21358,-0.0859 -0.32032,-0.128906 -0.0549,-0.005 -0.17512,-0.02743 -0.15429,-0.01172 z m -12.0625,0.443359 c -0.15742,0.234327 -0.31837,0.415532 -0.48047,0.560547 0.84795,-0.04702 1.69631,-0.08283 2.54492,-0.107422 -0.68385,-0.185382 -1.36937,-0.353694 -2.06445,-0.453125 z m -56.41406,2.582032 c -0.44738,0.259566 -0.89335,0.522592 -1.3379,0.789062 0.36858,-0.137091 0.73806,-0.271631 1.11524,-0.386719 0.0485,-0.08286 0.10778,-0.169462 0.16992,-0.265625 0.021,-0.05454 0.0306,-0.07898 0.0527,-0.136718 z m 108.07812,0.142578 c 0.0523,0.01153 0.0983,0.02004 0.15039,0.03125 -0.004,-0.0045 -0.008,-0.0092 -0.0117,-0.01367 -0.0996,-0.0068 -0.19436,-0.02796 -0.13867,-0.01758 z m -6.86523,4.771484 c -0.15799,0.03939 0.38489,1.372173 0.71289,1.791016 0.23452,0.299489 0.76578,0.530818 1.24414,0.751953 l 0.1582,0.07031 c -0.60954,-0.898909 -1.23554,-1.782144 -2.00195,-2.544922 -0.0539,-0.05361 -0.0907,-0.07399 -0.11328,-0.06836 z m 20.40039,5.138672 c 0.37019,0.49235 0.68666,1.029086 0.91796,1.634766 -0.19883,-0.0015 -0.7441,-0.136946 -0.5957,-0.0039 0.70446,0.628309 1.60664,0.997513 2.35547,1.572266 0.11191,0.08589 0.20403,0.190534 0.30273,0.289062 0.37783,0.04568 0.771,0.138153 1.16602,0.25 -1.35861,-1.284478 -2.74112,-2.532188 -4.14648,-3.742187 z m -138.46289,8.171875 c 0.002,-0.0099 -0.006,-0.0082 -0.0274,0.0098 -0.0291,0.02475 -0.0437,0.04008 -0.0723,0.06445 -0.10055,0.15312 -0.18185,0.264296 -0.3086,0.480468 -0.098,0.167008 0.39613,-0.485243 0.40821,-0.554687 z m 11.42187,4.1953124 c -0.3114,0.1895039 -0.62297,0.3788676 -0.93164,0.5722656 0.27262,-0.040659 0.51099,-0.069477 0.77539,-0.1113281 -0.0329,-0.00902 0.008,-0.1477241 0.15625,-0.4609375 z m -3.83203,0.2167968 c 0.013,0.00376 0.0202,0.00597 0.0332,0.00977 1.57413,0.4574362 0.80111,0.9824301 1.50196,0.359375 0.0583,0.054364 0.18862,0.073261 0.34375,0.080078 -0.62414,-0.2380502 -1.25006,-0.3821758 -1.87891,-0.4492188 z m 3.75391,0.1992188 c -0.0237,0.022772 -0.0411,0.034796 -0.0566,0.042969 0.01,-0.00157 0.0194,-0.00236 0.0293,-0.00391 0.007,-0.00887 0.021,-0.03044 0.0274,-0.039062 z m -15.60743,1.8554688 c -0.0172,0.0037 -0.0444,0.01339 -0.0625,0.017578 -0.009,0.035544 -0.0247,0.069619 -0.0332,0.1054687 -0.0445,0.1872713 0.011,0.070536 0.0957,-0.1230467 z m -7.6289,3.6269531 c -0.68738,0.9118677 -1.393,1.2262431 -2.11133,0.3652343 C 175.92848,23.439129 165.04299,56.829459 165,91.5 c -7.15121,32.98854 3.82465,56.8955 19.84766,77.4082 C 172.36192,159.43294 171.18042,129.63534 172,105.5 172.0553,65.513568 186.52004,27.50708 211.67383,1.2558594 c -0.70321,-0.026889 -1.22562,-0.1373847 -2.7168,-0.35156252 -1.81452,-0.71348579 -2.43373,-0.96897728 -2.95508,-1.1875 -0.12121,-0.0410409 -0.13738,-0.0448925 -0.29101,-0.0976563 -0.12406,-0.0424558 -0.2599,-0.0835161 -0.35938,-0.16601562 -0.24325,-0.10729362 -0.21039,-0.10615316 -0.0488,-0.0546875 -0.018,-0.0699336 0.12662,-0.21324193 0.0527,-0.21289062 -0.79052,0.00223 -1.57283,0.15928913 -2.35938,0.23828124 -1.52553,-0.36245668 -3.30798,-0.16848276 -4.57812,-1.08789058 -0.28192,-0.2040875 -0.54607,-0.4769465 -0.80078,-0.7753906 z m 168.05859,6.3574219 c 3.22497,3.5724107 6.27745,7.3624152 9.14258,11.3515622 -0.0153,-0.200998 -0.0342,-0.343413 -0.0488,-0.580078 -0.15163,-0.372559 -0.2435,-1.085605 -0.35742,-1.447265 -0.21797,-0.691919 -0.33633,-1.413314 -0.50391,-2.119141 0.0887,1.246347 0.20536,1.309532 -0.26367,0.693359 -0.003,-0.0014 -0.001,0.0017 -0.004,0 -2.79888,-1.593902 -1.39809,-2.1001835 -3.08593,-5.6054685 -0.30059,-0.6242268 0.25272,1.3617468 0.3789,2.0429687 -0.19495,-0.5980422 -0.38904,-1.1968901 -0.58398,-1.7949218 0.0509,0.1647109 0.0682,0.2831182 -0.0449,0.2207031 -0.55332,-0.3053858 -0.63751,-1.1056807 -1.07617,-1.5605469 -0.18713,-0.1938897 -0.42002,-0.7779708 -0.58204,-0.5625 -0.17435,0.232063 0.29312,0.5014461 0.43946,0.7519532 -1.09166,-0.3653704 -2.40288,-0.7364204 -3.41016,-1.390625 z M 192.84766,47.183594 C 179.94803,70.038837 180.03663,97.994135 180,125.5918 c 0.0456,24.79509 5.64142,49.12084 16.20312,70.4375 1.53638,-1.82504 3.07294,-3.64954 4.60938,-5.47461 -1.11545,0.52036 -2.42596,2.37855 -3.3457,1.56054 -2.35526,-2.09461 5.99556,-2.18549 6.04101,-2.18164 0.78017,0.0669 1.06699,0.16084 1.72461,0.33203 0.95548,0.3946 2.02205,0.61091 2.97266,1.01368 C 194.45669,167.97228 187.05048,140.14013 187,111.5918 187.01,89.530386 184.41478,66.791003 192.84766,47.183594 Z M 398.15234,189 c -0.80763,1.34124 -1.63524,2.66502 -2.48242,3.9707 0.12897,0.13807 0.25942,0.27829 0.38086,0.40039 0.7226,-1.44161 1.42323,-2.89888 2.10156,-4.37109 z m -189.92578,5.2793 c -0.92203,-0.12864 -5.6529,1.74902 -5.67578,2.7207 h 2.3086 c 0.12493,-0.17172 0.26459,-0.18054 0.44335,-0.0625 0.2961,-0.20455 0.43473,-0.21211 0.42383,0.0625 h 4.65039 c 0.36909,-0.0529 0.75832,-0.11154 1.14063,-0.16797 -0.15898,-0.26365 -0.31718,-0.52798 -0.47461,-0.79297 -0.92585,-0.65253 -1.71775,-1.6065 -2.81641,-1.75976 z m 134.87891,46.81054 c -1.1055,0.47342 -2.21696,0.9266 -3.33399,1.35938 1.13009,-0.35629 2.30936,-0.71768 2.85938,-0.90625 0.0253,-0.0254 0.36784,-0.34825 0.47461,-0.45313 z m 6.57812,1.86524 c -0.11668,0.0465 -0.24875,0.0984 -0.38671,0.1543 0.025,0.0662 0.0354,0.15356 0.0488,0.21679 0.0457,-0.0219 0.0899,-0.0428 0.13477,-0.0644 0.0716,-0.0996 0.13838,-0.20236 0.20312,-0.30664 z m -14.85937,1.51172 c -2.32784,0.77364 -4.67535,1.45953 -7.03906,2.05664 0.0464,-0.009 0.0944,-0.0134 0.14062,-0.0234 0.27615,0.0507 0.55225,0.10005 0.82813,0.15234 0.005,-0.004 0.004,-0.009 0.01,-0.0137 0.63245,-0.4696 1.56391,-0.22577 2.32422,-0.43164 0.42124,-0.11414 0.79413,-0.36092 1.19922,-0.52344 0.94058,-0.37705 1.31362,-0.50876 1.71875,-0.61328 0.26776,-0.2084 0.53996,-0.41148 0.81836,-0.60351 z m -10.89844,3.13086 c -2.72016,0.585 -5.45694,1.05275 -8.20508,1.40234 2.08137,1e-5 4.16272,0 6.24414,0 -0.005,0.0269 0.1073,0.0297 0.25586,0.0273 0.44051,-0.5033 1.20444,-1.08037 1.70508,-1.42968 z"
       inkscape:connector-curvature="0"
       sodipodi:nodetypes="cccccccccccccccccccccccccccccccccccccccccccccccccccccccccccccccccccccccccccccccccccccccccccccccccccccccccccccccccccccccccccccccccccccccccccccccccccaccccccccc" />
  </g>
</svg>
